<?xml version="1.0" encoding="UTF-8"?><svg id="Layer_2" xmlns="http://www.w3.org/2000/svg" xmlns:xlink="http://www.w3.org/1999/xlink" viewBox="0 0 223.41 154.31"><defs><style>.cls-1{fill:url(#linear-gradient-3);}.cls-2{fill:url(#linear-gradient-2);}.cls-3{fill:url(#linear-gradient);}.cls-4{fill:#fbb040;}</style><linearGradient id="linear-gradient" x1="87.7" y1="82.27" x2="223.41" y2="82.27" gradientTransform="translate(-20.41 81.02) rotate(-27.47)" gradientUnits="userSpaceOnUse"><stop offset="0" stop-color="#9f54a1"/><stop offset="0" stop-color="#a2569d"/><stop offset="0" stop-color="#ad5d91"/><stop offset="0" stop-color="#be687d"/><stop offset="0" stop-color="#d77862"/><stop offset="0" stop-color="#f68c41"/><stop offset=".28" stop-color="#f4873e"/><stop offset=".56" stop-color="#ee7b36"/><stop offset=".84" stop-color="#e56728"/><stop offset="1" stop-color="#df581f"/></linearGradient><linearGradient id="linear-gradient-2" x1=".41" y1="32.48" x2="155.14" y2="32.48" gradientUnits="userSpaceOnUse"><stop offset="0" stop-color="#9f54a1"/><stop offset="0" stop-color="#9e57a3"/><stop offset="0" stop-color="#9d63aa"/><stop offset="0" stop-color="#9b77b6"/><stop offset="0" stop-color="#9892c7"/><stop offset="0" stop-color="#9899cc"/><stop offset=".24" stop-color="#9594c9"/><stop offset=".49" stop-color="#8d88c2"/><stop offset=".74" stop-color="#7f74b5"/><stop offset=".99" stop-color="#6d57a4"/><stop offset="1" stop-color="#6c56a4"/></linearGradient><linearGradient id="linear-gradient-3" x1="0" y1="58.06" x2="155.56" y2="58.06" gradientUnits="userSpaceOnUse"><stop offset="0" stop-color="#9f54a1"/><stop offset=".28" stop-color="#9b54a1"/><stop offset=".56" stop-color="#8f54a1"/><stop offset=".83" stop-color="#7c55a3"/><stop offset="1" stop-color="#6c56a4"/></linearGradient></defs><g id="Layer_1-2"><rect class="cls-3" x="106.51" y="23.41" width="98.1" height="117.72" rx="8.08" ry="8.08" transform="translate(55.48 -62.48) rotate(27.47)"/><rect class="cls-4" x="135.93" y="46.38" width="70.87" height="10.97" rx="5.49" ry="5.49" transform="translate(43.24 -73.19) rotate(27.47)"/><rect class="cls-4" x="104.32" y="107.18" width="70.87" height="10.97" rx="5.49" ry="5.49" transform="translate(67.72 -51.76) rotate(27.47)"/><rect class="cls-4" x="120.12" y="76.78" width="70.87" height="10.97" rx="5.49" ry="5.49" transform="translate(55.48 -62.48) rotate(27.47)"/><path class="cls-2" d="M142.01,0H13.55C7.19,0,1.88,4.38.41,10.28l68.68,51.77c5.14,3.88,12.23,3.88,17.37,0L155.14,10.28C153.68,4.38,148.36,0,142.01,0Z"/><path class="cls-1" d="M155.14,10.23l-68.68,51.77c-5.14,3.88-12.23,3.88-17.37,0L.41,10.23c-.26,1.05-.41,2.14-.41,3.27v78.83c0,7.48,6.07,13.55,13.55,13.55h128.46c7.48,0,13.55-6.07,13.55-13.55V13.5c0-1.13-.15-2.22-.41-3.27Z"/></g></svg>